<?xml version="1.0" standalone="no"?>
<!DOCTYPE svg PUBLIC "-//W3C//DTD SVG 20010904//EN"
 "http://www.w3.org/TR/2001/REC-SVG-20010904/DTD/svg10.dtd">
<svg version="1.0" xmlns="http://www.w3.org/2000/svg"
 width="560.000000pt" height="560.000000pt" viewBox="0 0 560.000000 560.000000"
 preserveAspectRatio="xMidYMid meet">
<metadata>
Created by potrace 1.14, written by Peter Selinger 2001-2017
</metadata>
<g transform="translate(0.000000,560.000000) scale(0.100000,-0.100000)"
fill="#000000" stroke="none">
<path d="M2495 5549 c-22 -4 -51 -10 -64 -13 -152 -33 -313 -136 -436 -279
-48 -56 -102 -163 -136 -267 -24 -75 -30 -85 -56 -91 -15 -4 -69 -16 -120 -28
-282 -65 -590 -184 -798 -309 -349 -210 -528 -459 -519 -723 4 -122 11 -152
62 -254 35 -70 101 -163 141 -199 11 -11 21 -23 21 -28 0 -5 -21 -66 -46 -136
-46 -126 -105 -356 -119 -462 -4 -30 -11 -84 -15 -120 -16 -119 -4 -491 19
-625 46 -257 108 -449 221 -680 359 -732 1076 -1233 1895 -1324 120 -13 426
-11 545 4 370 47 735 181 1030 378 279 187 513 422 692 697 147 225 275 530
332 790 44 203 54 306 53 525 0 160 -17 352 -42 470 -29 139 -106 389 -141
457 -7 14 -10 28 -6 30 16 7 112 130 144 185 63 109 80 168 83 303 2 103 -13
167 -61 262 -26 52 -77 132 -99 154 -5 6 -28 31 -51 55 -219 238 -651 447
-1166 565 -75 17 -77 18 -83 53 -3 20 -17 66 -31 103 -97 258 -326 451 -597
503 -81 16 -582 19 -652 4z"/>
</g>
</svg>
